# xmcd
#
# Track frame offsets:
#	150
#	12292
#	32591
#	53508
#
# Disc length: 1119 seconds
#
# Revision: 1
# Processed by: cddbd v1.5.2PL0 Copyright (c) Steve Scherf et al.
# Submitted via: audiograbber 1.83.01
#
DISCID=22045d04
DTITLE=Lasgo - Hard2Beat Promo
DYEAR=2008
DGENRE=Dance
TTITLE0=Out Of My Mind (UK Radio Edit)
TTITLE1=Out Of My Mind (UK Club Mix)
TTITLE2=Out Of My Mind (Extended Mix)
TTITLE3=Out Of My Mind (Sebastian Dali Remix)
EXTD=
EXTT0=
EXTT1=
EXTT2=
EXTT3=
PLAYORDER=
